<?xml version="1.0" standalone="no"?>
<!DOCTYPE svg PUBLIC "-//W3C//DTD SVG 20010904//EN"
 "http://www.w3.org/TR/2001/REC-SVG-20010904/DTD/svg10.dtd">
<svg version="1.0" xmlns="http://www.w3.org/2000/svg"
 width="512.000000pt" height="512.000000pt" viewBox="0 0 512.000000 512.000000"
 preserveAspectRatio="xMidYMid meet">

<g transform="translate(0.000000,512.000000) scale(0.100000,-0.100000)"
fill="#000000" stroke="none">
<path d="M2511 4163 l-25 -20 14 -133 c14 -150 9 -276 -20 -445 -15 -89 -72
-300 -83 -312 -3 -2 -157 -19 -832 -88 -379 -39 -391 -42 -365 -91 20 -37 82
-83 148 -110 72 -30 165 -31 270 -5 207 52 609 117 681 109 l30 -3 -102 -206
c-223 -452 -519 -814 -1131 -1386 -60 -57 -106 -108 -104 -115 3 -8 20 -13 45
-12 30 0 64 15 144 64 259 156 442 303 697 557 100 101 184 183 187 183 6 0
32 -86 69 -230 35 -134 84 -388 106 -547 15 -115 34 -170 79 -241 44 -67 80
-87 108 -59 8 8 20 49 26 90 l11 75 40 7 c122 19 447 35 746 35 287 0 339 2
358 16 35 24 27 48 -42 120 l-64 67 19 71 c62 225 134 391 211 485 78 95 88
112 88 153 0 22 -5 48 -11 59 -14 26 -115 91 -256 164 -140 73 -173 75 -343
22 -249 -78 -458 -118 -787 -152 -144 -15 -165 -15 -204 -1 -24 8 -43 20 -41
26 1 6 38 71 81 143 99 167 167 302 247 492 40 95 69 152 81 156 62 23 365 33
948 34 671 0 665 0 665 53 0 44 -34 87 -112 143 -91 64 -160 97 -235 111 -51
9 -86 6 -308 -31 -230 -39 -862 -131 -894 -131 -17 0 -16 6 48 214 55 177 104
309 152 410 16 33 29 72 29 87 0 42 -48 84 -154 135 -114 56 -179 66 -215 37z
m796 -1945 c26 -21 53 -89 53 -135 0 -66 -89 -565 -104 -580 -17 -17 -669 -87
-761 -81 l-49 3 -13 75 c-20 118 -63 441 -71 534 l-8 85 71 12 c165 28 793
108 828 104 21 -2 45 -9 54 -17z"/>
</g>
</svg>
